<svg version="1.0" xmlns="http://www.w3.org/2000/svg" width="768px" height="768px" viewBox="0 0 7680 7680" preserveAspectRatio="xMidYMid meet">
<g id="layer101" fill="#464747" stroke="none">
<path d="M4030 7346 c-87 -19 -157 -47 -234 -96 -154 -97 -332 -342 -355 -488 -6 -41 -9 -95 -5 -121 5 -41 2 -55 -29 -111 -20 -36 -40 -84 -46 -107 -11 -40 -13 -42 -65 -53 -139 -29 -216 -127 -272 -350 -14 -52 -28 -97 -32 -101 -4 -4 -38 -17 -77 -29 -38 -13 -109 -40 -157 -60 -73 -31 -88 -35 -88 -21 0 26 -37 79 -60 86 -11 4 -42 28 -69 55 -52 52 -97 78 -200 117 -75 28 -90 38 -102 70 -14 37 -35 27 -49 -23 -21 -74 -19 -76 180 -217 74 -52 75 -53 72 -94 -2 -22 4 -58 13 -79 12 -30 13 -39 3 -45 -7 -4 -57 -37 -110 -73 l-98 -65 0 72 c0 99 -19 136 -85 160 -57 21 -78 32 -190 93 -98 54 -125 84 -166 186 -35 87 -55 99 -79 46 -18 -39 -18 -115 -1 -178 17 -59 89 -130 199 -194 46 -27 90 -59 98 -71 15 -23 74 -200 74 -223 0 -8 -45 -59 -100 -114 -160 -160 -291 -333 -403 -532 -49 -86 -57 -96 -62 -74 -3 13 -2 76 4 139 10 119 6 162 -23 216 -44 87 -111 133 -246 173 -114 33 -239 126 -270 200 -13 32 -34 39 -44 14 -9 -23 12 -102 42 -157 34 -64 122 -144 172 -157 57 -15 121 -68 152 -125 24 -45 27 -66 37 -215 10 -157 25 -236 62 -327 11 -27 10 -40 -6 -95 -10 -34 -22 -67 -26 -72 -4 -4 -12 18 -19 50 -21 110 -51 208 -77 255 -35 66 -130 154 -174 163 -87 16 -210 102 -260 182 -19 30 -37 54 -42 54 -12 0 -27 -48 -27 -88 0 -48 47 -129 96 -168 20 -16 80 -52 133 -79 l96 -50 27 -85 c15 -47 39 -140 53 -206 34 -163 60 -241 97 -287 l30 -38 -13 -102 c-20 -144 -17 -482 4 -628 44 -295 148 -605 286 -848 l42 -74 -30 -71 c-42 -104 -61 -201 -61 -318 1 -160 31 -254 111 -337 l42 -43 -22 -54 c-35 -82 -50 -151 -57 -249 -6 -84 -4 -96 25 -174 17 -46 56 -131 87 -188 55 -105 56 -106 44 -149 -25 -88 4 -168 90 -255 70 -71 130 -99 313 -148 240 -65 417 -90 492 -69 22 6 74 10 116 9 146 -4 242 26 346 107 27 22 72 52 99 65 152 78 237 180 236 281 -1 28 6 73 15 100 21 67 21 172 0 213 -18 34 -62 73 -83 73 -9 0 -14 12 -14 35 0 34 1 34 33 27 17 -4 147 -7 287 -7 279 1 382 13 616 74 765 201 1396 787 1658 1539 64 185 120 458 129 627 l2 50 62 6 c108 10 197 88 279 244 21 38 25 40 68 40 64 1 94 26 143 124 38 78 46 86 90 105 86 38 108 53 179 124 129 130 174 239 174 417 0 200 -72 404 -250 715 -40 69 -103 168 -140 220 -93 130 -228 290 -246 290 -17 0 -17 5 2 -77 22 -95 14 -226 -20 -315 -37 -100 -65 -142 -171 -257 -59 -65 -107 -128 -126 -166 -63 -128 -74 -330 -28 -521 14 -60 23 -144 28 -254 4 -91 7 -166 6 -167 0 -1 -20 -5 -43 -9 -40 -6 -42 -5 -42 17 0 40 -56 256 -95 369 -82 234 -201 458 -351 660 -91 123 -334 370 -449 457 -289 218 -620 374 -947 447 -130 29 -321 56 -411 57 -114 2 -7 21 133 23 118 2 130 4 210 38 157 64 234 124 379 293 170 200 226 251 310 286 132 56 245 50 430 -21 43 -17 107 -48 140 -70 96 -62 113 -54 80 42 -43 128 -179 280 -400 446 -156 117 -383 223 -578 269 -132 31 -395 41 -501 19z m-1822 -5628 c162 -129 403 -271 577 -339 78 -30 80 -33 56 -60 -11 -13 -46 -62 -79 -109 -49 -71 -68 -90 -113 -113 -89 -45 -183 -55 -286 -30 -18 4 -23 1 -23 -15 0 -26 76 -75 149 -96 68 -20 189 -20 261 -1 30 8 84 15 120 15 l65 0 -45 -26 c-25 -14 -58 -37 -74 -52 -32 -30 -86 -135 -86 -168 0 -36 -11 -35 -59 5 -71 59 -259 180 -331 214 -49 23 -84 31 -143 35 -74 4 -78 6 -73 26 4 11 9 71 12 131 12 201 -32 403 -103 477 l-26 27 57 63 c31 35 56 66 56 71 0 13 10 7 88 -55z"/>
</g>
<g id="layer102" fill="#9b4f4f" stroke="none">
<path d="M4175 7338 c-140 -10 -217 -27 -300 -68 -154 -75 -325 -267 -387 -436 -17 -45 -22 -82 -23 -159 -1 -94 -3 -103 -33 -150 -17 -28 -36 -71 -41 -95 -9 -38 -8 -46 6 -55 113 -69 210 -141 264 -197 36 -37 69 -68 72 -68 4 0 22 30 41 68 46 91 62 104 122 99 l49 -3 -53 -2 c-50 -2 -54 -4 -80 -45 -15 -24 -38 -67 -51 -95 -22 -47 -23 -54 -10 -68 13 -12 23 -13 60 -3 46 12 54 13 184 9 67 -2 92 2 150 25 79 30 118 47 125 56 3 3 32 22 65 42 65 39 146 117 245 237 112 137 186 206 245 231 30 12 55 26 55 31 0 4 7 5 15 2 8 -4 15 -2 15 2 0 5 42 11 92 12 51 2 96 6 100 8 5 3 8 0 8 -6 0 -7 8 -9 19 -5 36 11 238 -64 313 -116 40 -29 52 -25 45 15 -11 71 -127 220 -250 324 -139 117 -228 173 -281 179 -44 5 -76 23 -41 23 62 0 -87 82 -240 132 -60 20 -137 41 -170 48 -33 6 -68 16 -77 21 -9 5 -31 6 -47 3 -17 -4 -43 -2 -58 3 -16 5 -79 5 -148 1z"/>
<path d="M3280 6340 c-110 -31 -173 -113 -221 -285 -23 -83 -79 -378 -74 -384 2 -2 16 6 32 16 80 56 212 73 295 39 12 -6 18 -1 23 16 8 27 74 108 128 158 42 38 120 80 152 80 43 0 96 22 111 45 15 23 15 27 -9 67 -37 62 -153 165 -254 226 -42 25 -62 31 -105 30 -29 0 -64 -4 -78 -8z"/>
<path d="M6513 5646 c16 -102 -6 -220 -61 -330 -36 -72 -64 -110 -138 -186 -108 -112 -147 -170 -176 -265 -31 -98 -30 -272 2 -405 26 -110 45 -429 26 -442 -20 -14 -97 -8 -179 13 -167 43 -227 29 -426 -101 -59 -38 -117 -70 -128 -70 -36 0 -155 76 -224 142 -36 35 -104 115 -152 179 -103 139 -193 225 -241 235 -19 3 -61 3 -93 0 -32 -3 -92 -5 -133 -4 -136 3 -200 -1 -200 -14 0 -5 -8 -8 -17 -8 -10 0 -42 -11 -70 -25 -41 -19 -53 -29 -53 -47 0 -13 -7 -36 -15 -51 -13 -25 -13 -41 0 -130 17 -122 18 -140 5 -132 -5 3 -10 23 -10 44 0 40 -17 141 -25 149 -2 2 -24 -13 -49 -34 -33 -28 -45 -47 -46 -66 0 -15 -7 -48 -16 -74 -8 -25 -14 -47 -12 -47 2 -1 12 -8 23 -14 54 -34 114 -61 146 -67 31 -5 42 -2 68 20 18 14 38 39 47 55 14 28 16 29 37 14 32 -23 56 -19 119 21 54 33 59 34 80 20 12 -9 31 -16 42 -16 33 0 112 -99 79 -100 -73 -2 -145 -24 -230 -72 -53 -29 -108 -64 -122 -78 -30 -29 -76 -60 -90 -60 -5 0 -39 27 -75 60 -63 57 -121 94 -159 102 -11 2 -28 -14 -51 -45 l-34 -47 30 -55 c36 -67 97 -131 173 -182 49 -32 67 -38 109 -38 59 0 147 39 253 110 73 48 91 50 191 14 69 -25 75 -24 117 12 35 31 35 31 122 24 179 -13 279 -45 343 -110 19 -19 58 -53 86 -75 45 -35 57 -40 103 -40 57 0 82 10 118 46 53 53 159 64 423 42 80 -6 162 -8 182 -4 82 15 186 119 244 244 21 46 26 51 43 42 27 -14 76 -2 105 27 22 22 69 106 80 145 3 10 39 34 81 54 58 27 94 54 151 111 41 41 74 81 74 89 0 8 4 14 9 14 10 0 54 98 72 160 8 26 13 95 12 165 0 109 -4 131 -37 240 -42 136 -81 222 -168 380 -90 163 -88 160 -81 74 7 -90 -11 -215 -36 -249 -11 -15 -52 -38 -107 -60 -124 -50 -148 -64 -207 -121 -28 -27 -52 -49 -54 -49 -2 0 6 13 18 30 39 53 168 129 302 179 33 13 46 43 57 140 10 90 -3 195 -35 272 -26 65 -183 278 -221 302 -6 4 -7 -16 -1 -57z m-2136 -1342 c-7 -51 -17 -54 -17 -6 0 24 5 42 11 42 6 0 9 -14 6 -36z m-83 -126 c8 -70 7 -140 -2 -155 -4 -6 -7 23 -7 65 0 43 -3 92 -7 110 -4 17 -4 32 1 32 4 0 11 -24 15 -52z"/>
<path d="M3081 5590 c-65 -23 -80 -36 -98 -77 -22 -55 -16 -122 16 -178 27 -46 130 -156 194 -205 39 -31 112 -136 136 -198 12 -29 24 -77 27 -107 4 -31 10 -58 14 -60 4 -3 39 11 76 30 78 39 84 41 84 21 0 -7 -35 -29 -78 -47 -43 -19 -80 -38 -83 -44 -7 -17 52 -17 124 0 65 16 92 15 71 -4 -17 -15 -105 -34 -161 -34 l-55 0 6 -76 c4 -41 9 -77 11 -80 3 -2 33 4 67 14 35 10 92 17 128 17 59 0 69 4 122 41 l58 41 -30 31 -29 30 16 54 c21 73 14 221 -13 273 l-19 38 -30 -21 c-40 -27 -142 -79 -155 -79 -26 0 -5 23 38 41 64 28 132 71 132 85 0 6 -7 17 -15 24 -12 10 -34 1 -121 -49 -58 -34 -110 -61 -115 -61 -26 0 0 22 74 64 45 25 95 56 110 69 l28 22 -87 100 c-141 163 -194 240 -194 284 0 14 -13 27 -40 41 -50 26 -137 26 -209 0z"/>
<path d="M3860 4649 c-73 -11 -190 -66 -190 -89 0 -7 190 -30 253 -30 62 0 107 23 107 54 0 49 -79 79 -170 65z"/>
<path d="M3475 4529 c-59 -12 -197 -75 -277 -127 l-58 -37 0 -74 c0 -126 42 -252 123 -370 47 -69 166 -190 229 -233 113 -76 182 -93 255 -63 71 30 192 142 250 232 91 143 82 249 -27 330 -73 55 -90 74 -90 101 0 71 -94 173 -206 223 -52 23 -135 31 -199 18z"/>
<path d="M3736 4512 c5 -4 31 -25 58 -47 58 -46 101 -110 109 -162 5 -26 16 -46 38 -63 18 -14 49 -40 69 -57 21 -18 40 -33 43 -33 11 0 14 55 5 84 -26 77 -161 224 -246 268 -36 18 -95 26 -76 10z"/>
<path d="M4163 4389 c-40 -15 -61 -69 -78 -202 l-6 -48 31 16 c83 43 136 125 122 190 -8 42 -33 58 -69 44z"/>
<path d="M3858 3669 c-38 -28 -36 -53 11 -143 72 -139 150 -254 194 -285 72 -51 361 -199 422 -217 47 -13 81 -15 165 -10 99 6 110 9 195 51 81 41 95 45 137 39 58 -8 98 13 98 51 0 13 4 26 10 30 5 3 50 9 100 14 65 6 100 14 118 28 41 29 101 163 74 163 -6 0 -33 -14 -61 -31 -46 -29 -56 -31 -106 -26 -30 3 -69 13 -87 21 -29 15 -33 15 -65 -4 -33 -19 -36 -19 -63 -3 -25 15 -35 15 -87 4 -32 -8 -102 -35 -155 -62 -54 -27 -110 -49 -124 -49 -15 0 -68 17 -118 38 -122 52 -119 51 -200 62 -108 16 -160 37 -218 88 -59 53 -153 169 -183 225 -11 20 -22 37 -25 37 -3 0 -17 -10 -32 -21z"/>
</g>
<g id="layer103" fill="#30b072" stroke="none">
<path d="M3063 4357 c-36 -20 -59 -59 -73 -122 -19 -85 -24 -230 -10 -295 44 -200 230 -394 425 -445 114 -29 218 -15 267 37 35 38 35 48 1 48 -42 1 -134 42 -205 92 -70 50 -178 160 -227 231 -84 123 -136 282 -129 401 3 71 -3 79 -49 53z"/>
<path d="M2894 4207 c-74 -55 -151 -139 -159 -175 -8 -37 23 -129 86 -257 57 -114 129 -211 199 -270 52 -43 59 -55 32 -55 -27 0 -161 142 -205 218 -44 75 -87 168 -117 252 -13 36 -25 67 -26 69 -5 6 -68 -50 -80 -71 -24 -43 13 -149 90 -261 49 -71 55 -87 32 -87 -15 0 -118 164 -137 218 -20 59 -43 33 -53 -63 -21 -186 105 -392 300 -493 117 -60 260 -92 279 -62 3 6 13 10 21 10 8 0 31 7 52 16 l37 16 -93 24 c-97 24 -138 44 -248 121 -46 32 -62 49 -55 56 8 8 20 4 43 -13 148 -111 213 -139 340 -147 62 -4 83 -2 103 11 34 23 31 36 -8 36 -39 0 -198 38 -211 51 -22 20 8 20 82 0 94 -25 191 -27 238 -5 34 16 124 90 124 102 0 4 -26 7 -58 8 -216 4 -448 186 -529 414 -32 91 -42 222 -23 311 7 33 11 62 8 64 -3 3 -32 -14 -64 -38z"/>
<path d="M2503 3703 c-32 -60 -151 -364 -163 -416 -15 -69 12 -137 82 -204 60 -58 185 -85 291 -63 32 6 111 37 175 67 l117 55 -52 18 c-245 85 -408 278 -422 500 l-6 85 -22 -42z"/>
<path d="M3580 3428 c-22 -24 -35 -47 -31 -53 16 -21 41 -102 51 -166 5 -36 18 -90 28 -120 11 -30 27 -92 36 -139 20 -98 70 -213 111 -252 35 -35 83 -45 123 -24 35 18 42 33 42 91 0 33 -10 59 -41 110 -56 93 -85 174 -108 304 -11 60 -28 129 -39 154 -23 51 -97 137 -119 137 -7 0 -31 -19 -53 -42z"/>
<path d="M2147 3155 c-76 -28 -145 -92 -185 -171 -52 -103 -83 -316 -49 -341 6 -5 48 -24 92 -42 44 -18 106 -49 138 -68 54 -33 64 -35 114 -30 58 6 118 33 168 74 84 71 165 244 165 355 l0 56 -50 11 c-76 16 -126 46 -170 102 -22 28 -40 55 -40 60 0 14 -141 9 -183 -6z"/>
<path d="M3129 3133 c-22 -5 -28 -29 -36 -135 -6 -85 9 -202 28 -214 23 -14 61 211 49 289 -8 53 -17 65 -41 60z"/>
<path d="M2989 3093 c-76 -64 -139 -219 -139 -341 0 -65 17 -112 40 -112 20 0 83 66 106 111 38 76 54 154 54 266 0 116 -5 123 -61 76z"/>
<path d="M1885 2610 c-43 -18 -146 -143 -214 -258 -66 -113 -92 -208 -98 -353 -4 -100 -2 -137 12 -185 19 -66 59 -135 104 -178 25 -24 32 -26 51 -16 l23 12 -20 -28 c-53 -77 -93 -225 -93 -348 0 -94 11 -129 82 -271 75 -151 79 -155 116 -128 35 26 138 78 172 87 14 4 -11 -11 -56 -34 -44 -22 -98 -58 -119 -80 -36 -37 -39 -45 -43 -105 -4 -55 -1 -70 21 -108 58 -98 138 -154 292 -202 185 -58 319 -86 443 -93 110 -7 119 -6 154 15 26 16 38 19 41 10 3 -8 31 -12 94 -11 109 2 168 25 278 108 39 29 92 64 119 77 58 28 160 119 182 161 9 17 17 60 18 96 2 37 8 78 13 92 19 45 25 126 14 168 -10 36 -58 92 -79 92 -4 0 -16 -17 -27 -37 -39 -71 -138 -115 -300 -132 -220 -23 -303 -113 -329 -354 l-14 -122 -1 80 -1 81 -47 45 c-27 25 -66 58 -88 74 -22 16 -46 37 -53 47 -7 10 -18 18 -23 18 -5 0 -20 9 -32 21 -31 29 -178 101 -194 95 -7 -3 -13 -2 -13 3 0 5 -40 6 -90 3 -66 -3 -90 -2 -90 7 0 7 4 10 9 7 4 -3 6 6 3 19 -2 14 -1 33 4 42 4 10 6 69 5 131 -2 64 1 112 6 112 12 0 -3 128 -23 200 -17 61 -39 101 -80 143 l-26 29 48 49 c26 27 44 49 39 49 -6 0 -3 6 5 13 27 21 60 69 54 78 -3 5 0 9 7 9 7 0 10 3 7 6 -4 3 5 31 19 62 55 124 75 210 77 327 1 91 -3 122 -22 175 -21 63 -25 67 -90 108 -61 37 -204 103 -221 101 -3 0 -15 -4 -26 -9z m864 -2220 c1 -20 -1 -22 -9 -10 -5 8 -9 31 -9 50 1 32 2 33 9 10 4 -14 8 -36 9 -50z"/>
<path d="M3050 1416 c-111 -30 -165 -73 -249 -195 -34 -50 -76 -101 -94 -115 -79 -59 -182 -90 -257 -76 -34 6 -40 5 -38 -9 8 -45 228 -66 359 -34 61 14 82 15 182 3 132 -15 220 -5 305 36 69 34 102 77 102 136 0 80 -25 141 -79 191 -79 74 -135 90 -231 63z"/>
<path d="M2360 1041 c0 -12 28 -22 35 -12 3 5 -2 12 -11 15 -21 8 -24 8 -24 -3z"/>
</g>
<g id="layer104" fill="#6b6da8" stroke="none">
<path d="M4033 7316 c-89 -17 -221 -80 -288 -138 -104 -88 -204 -223 -251 -337 -24 -56 -28 -81 -29 -167 -1 -95 -3 -104 -32 -150 -25 -39 -59 -135 -50 -139 65 -33 212 -139 270 -195 50 -49 81 -72 86 -65 5 5 22 37 39 70 42 84 54 92 142 97 89 6 216 56 287 114 99 81 164 232 184 424 8 73 17 121 27 132 20 24 221 126 285 145 29 9 88 21 131 27 l79 12 -69 36 c-87 45 -190 82 -319 114 -126 32 -377 42 -492 20z"/>
<path d="M3280 6340 c-110 -31 -173 -113 -221 -285 -23 -83 -79 -378 -74 -384 2 -2 16 6 32 16 80 56 212 73 295 39 12 -6 18 -1 23 16 9 27 74 108 129 158 52 48 93 68 173 84 67 14 93 33 93 66 0 44 -133 180 -247 254 -62 40 -76 45 -124 44 -30 0 -65 -4 -79 -8z"/>
<path d="M2210 6075 c0 -31 19 -50 114 -114 42 -29 92 -66 112 -83 35 -31 37 -31 62 -15 47 28 50 43 17 78 -33 34 -108 75 -202 109 -35 12 -68 29 -74 36 -17 21 -29 17 -29 -11z"/>
<path d="M1749 6049 c-14 -27 -4 -101 22 -156 12 -25 41 -57 72 -81 68 -51 194 -122 217 -122 10 0 28 12 40 27 l22 28 -29 22 c-15 13 -64 42 -108 65 -109 57 -180 125 -196 189 -14 54 -22 60 -40 28z"/>
<path d="M2504 5843 c-47 -51 -49 -64 -19 -123 38 -74 62 -180 76 -327 6 -70 16 -136 21 -146 11 -22 54 -14 85 17 22 21 22 22 7 116 -8 52 -18 176 -23 274 -7 178 -7 179 -35 202 -39 35 -72 31 -112 -13z"/>
<path d="M2130 5740 c0 -5 -16 -25 -35 -45 l-36 -35 30 -98 c17 -53 37 -128 46 -166 20 -86 43 -131 89 -175 32 -31 38 -33 61 -23 31 14 31 19 1 79 -37 73 -54 155 -62 293 -6 120 -14 157 -38 172 -16 11 -56 10 -56 -2z"/>
<path d="M3102 5712 c-66 -24 -120 -67 -145 -116 -27 -51 -10 -69 32 -33 68 57 227 87 296 55 28 -12 39 -6 49 29 5 14 -1 29 -17 48 -20 24 -32 28 -93 31 -51 3 -83 0 -122 -14z"/>
<path d="M3081 5590 c-65 -23 -80 -36 -98 -77 -22 -55 -16 -122 16 -178 27 -46 130 -156 194 -205 39 -31 112 -136 136 -198 12 -29 24 -77 27 -107 4 -31 10 -58 14 -60 4 -3 39 11 76 30 78 39 84 41 84 21 0 -7 -35 -29 -78 -47 -43 -19 -80 -38 -83 -44 -7 -17 52 -17 124 0 65 16 92 15 71 -4 -17 -15 -105 -34 -161 -34 l-55 0 6 -76 c4 -41 9 -77 11 -80 3 -2 33 4 67 14 35 10 92 17 128 17 59 0 68 3 117 40 29 22 53 43 53 46 0 3 -11 18 -25 32 -24 25 -24 26 -10 80 8 30 15 85 15 121 0 65 -22 163 -40 174 -5 3 -47 -15 -93 -40 -84 -45 -107 -53 -107 -36 0 5 33 25 73 45 40 19 81 44 92 56 17 19 17 22 3 37 -15 14 -25 10 -123 -46 -59 -33 -111 -61 -116 -61 -26 0 0 22 74 64 45 25 95 56 110 69 l28 22 -87 100 c-141 163 -194 240 -194 284 0 14 -13 27 -40 41 -50 26 -137 26 -209 0z"/>
<path d="M2692 5375 c0 -11 4 -31 8 -45 6 -20 8 -21 8 -5 0 11 -4 31 -8 45 -6 20 -8 21 -8 5z"/>
<path d="M990 5373 c0 -5 13 -31 29 -59 27 -47 122 -144 142 -144 8 0 39 40 39 51 0 4 -20 19 -44 33 -24 14 -69 48 -99 76 -54 49 -67 58 -67 43z"/>
<path d="M2671 5244 c-25 -20 -55 -34 -71 -34 -28 0 -60 -27 -60 -51 0 -26 37 -73 138 -176 167 -171 313 -417 338 -571 4 -23 8 -42 11 -42 2 0 22 9 44 20 22 12 48 19 57 16 10 -3 35 6 57 22 l40 27 3 95 c9 236 -52 351 -277 520 -69 52 -116 96 -132 122 -33 56 -65 88 -86 87 -10 0 -38 -16 -62 -35z"/>
<path d="M2315 5195 c-22 -14 -55 -28 -73 -31 -19 -4 -40 -17 -49 -31 -21 -32 -8 -60 54 -109 96 -76 112 -95 134 -163 17 -50 33 -77 69 -111 25 -25 85 -83 133 -129 121 -115 182 -210 223 -346 10 -33 21 -64 25 -69 4 -4 27 7 51 25 23 19 44 34 45 34 2 0 -33 167 -45 211 -19 67 -82 153 -199 270 -125 126 -155 171 -177 267 -25 105 -62 176 -102 193 -43 18 -42 18 -89 -11z"/>
<path d="M1217 5195 c-9 -9 -17 -19 -17 -23 0 -4 23 -22 51 -41 105 -71 126 -123 138 -345 16 -288 66 -382 268 -509 90 -57 92 -58 117 -41 19 12 26 25 26 49 0 30 -6 37 -55 65 -88 50 -160 123 -197 198 l-33 67 0 206 0 206 -28 40 c-56 81 -126 128 -208 139 -35 5 -49 2 -62 -11z"/>
<path d="M820 4919 c0 -44 39 -105 95 -149 45 -36 147 -90 169 -90 11 0 28 37 27 59 0 2 -25 14 -55 27 -53 21 -176 100 -176 113 -1 3 -14 22 -30 41 l-30 34 0 -35z"/>
<path d="M1124 4696 c-4 -16 4 -46 24 -88 18 -37 42 -117 57 -192 33 -162 71 -291 95 -331 21 -34 91 -79 258 -163 l113 -57 30 33 c22 24 29 42 29 71 0 22 2 46 5 53 7 18 -36 39 -175 84 -168 54 -179 68 -229 295 -34 153 -65 222 -126 278 -51 47 -72 51 -81 17z"/>
<path d="M3813 4630 c-67 -18 -143 -56 -143 -72 0 -5 26 -8 58 -9 31 0 89 -4 127 -8 82 -9 130 0 158 28 20 20 20 21 3 40 -17 18 -32 24 -103 36 -16 2 -60 -4 -100 -15z"/>
<path d="M3475 4529 c-59 -12 -197 -75 -277 -127 l-58 -37 0 -74 c0 -174 70 -326 224 -489 109 -114 235 -192 312 -192 133 0 355 235 379 400 9 64 -23 121 -105 187 -57 45 -66 57 -75 101 -6 27 -22 63 -34 80 -27 39 -128 118 -175 137 -47 20 -131 26 -191 14z"/>
<path d="M3788 4475 c78 -58 122 -124 122 -181 0 -17 15 -34 53 -62 28 -21 58 -46 66 -55 39 -47 42 17 5 92 -35 69 -165 201 -226 229 -76 35 -85 25 -20 -23z"/>
<path d="M3063 4357 c-56 -31 -84 -114 -91 -272 -7 -164 39 -288 157 -418 152 -169 444 -241 543 -135 35 38 35 48 1 48 -42 1 -134 42 -205 92 -70 50 -178 160 -227 231 -84 123 -136 282 -129 401 3 71 -3 79 -49 53z"/>
<path d="M1878 4332 c-55 -15 -58 -17 -58 -48 0 -18 -8 -46 -17 -62 -17 -29 -17 -31 2 -53 40 -45 64 -49 480 -90 188 -18 351 -41 396 -54 10 -3 20 4 27 19 10 23 8 28 -26 54 -116 89 -389 219 -511 242 -78 15 -227 11 -293 -8z"/>
<path d="M2894 4207 c-74 -55 -151 -139 -159 -175 -12 -56 92 -297 176 -409 48 -64 129 -143 146 -143 7 0 13 -8 13 -18 0 -36 -31 -18 -109 63 -101 105 -170 223 -231 395 -13 36 -25 67 -26 69 -5 6 -68 -50 -80 -71 -24 -43 13 -149 90 -261 49 -71 55 -87 32 -87 -15 0 -118 164 -137 218 -25 71 -52 18 -53 -103 0 -79 4 -99 32 -165 57 -133 129 -209 172 -182 25 15 41 15 37 1 -5 -26 19 -17 31 11 14 32 32 32 32 0 0 -19 25 -34 42 -24 5 4 -6 20 -26 36 -38 31 -47 58 -21 58 21 0 68 -25 84 -44 19 -22 41 -20 41 5 0 11 5 17 10 14 6 -3 10 3 10 15 0 12 4 19 10 15 5 -3 7 -12 3 -20 -6 -18 22 -10 50 13 16 14 17 13 17 -11 0 -33 6 -34 31 -4 10 12 18 17 19 12 0 -20 45 -14 62 8 10 12 18 16 18 9 0 -9 5 -10 19 -2 28 15 28 15 27 -37 l-1 -48 66 -9 c62 -7 71 -6 120 19 48 24 119 80 119 94 0 4 -28 5 -61 5 -119 -3 -217 41 -353 159 -70 60 -140 165 -173 257 -32 91 -42 222 -23 311 7 33 11 62 8 64 -3 3 -32 -14 -64 -38z"/>
</g>
<g id="layer105" fill="#619695" stroke="none">
<path d="M3420 4506 c-90 -32 -187 -82 -237 -123 -43 -34 -43 -35 -43 -101 0 -165 72 -320 224 -480 109 -114 235 -192 312 -192 133 0 355 235 379 400 9 64 -23 121 -105 187 -57 46 -66 57 -76 102 -13 61 -47 107 -112 155 -112 82 -215 98 -342 52z"/>
<path d="M1676 4372 c-3 -6 -1 -14 5 -17 15 -10 25 3 12 16 -7 7 -13 7 -17 1z"/>
<path d="M3047 4329 c-20 -17 -37 -39 -37 -49 0 -11 -9 -42 -20 -70 -15 -38 -20 -74 -20 -143 0 -160 46 -275 159 -400 152 -169 444 -241 543 -135 35 38 35 48 1 48 -42 1 -134 42 -205 92 -69 50 -178 160 -225 229 -78 113 -143 300 -143 410 0 27 -3 49 -8 49 -4 0 -24 -14 -45 -31z"/>
<path d="M1270 4330 c0 -5 7 -10 15 -10 8 0 15 5 15 10 0 6 -7 10 -15 10 -8 0 -15 -4 -15 -10z"/>
<path d="M1910 4325 c0 -8 5 -15 10 -15 6 0 10 7 10 15 0 8 -4 15 -10 15 -5 0 -10 -7 -10 -15z"/>
<path d="M2856 4324 c-4 -11 -14 -15 -31 -11 -20 3 -24 1 -21 -12 3 -9 10 -35 16 -58 l11 -42 44 31 c42 30 62 64 31 52 -8 -3 -17 -1 -21 5 -3 6 1 11 9 11 9 0 16 9 16 20 0 25 -45 28 -54 4z"/>
<path d="M2025 4320 c-12 -4 -27 -15 -34 -24 -8 -9 -28 -16 -48 -16 -20 0 -32 -4 -28 -10 3 -6 -1 -7 -9 -4 -9 3 -13 10 -10 15 3 5 -11 9 -30 9 -31 0 -36 -3 -36 -23 0 -13 -7 -32 -15 -43 -22 -29 -18 -51 15 -74 35 -25 125 -39 445 -70 196 -19 360 -41 406 -55 10 -4 20 4 27 20 11 23 8 27 -35 60 -37 29 -119 72 -275 146 -47 23 -126 45 -153 43 -16 -1 -36 3 -42 9 -8 6 -13 6 -13 0 0 -5 -7 -10 -15 -10 -8 0 -15 4 -15 9 0 4 -10 8 -22 8 -19 0 -20 2 -8 10 8 5 10 10 4 10 -19 0 -24 -12 -13 -32 9 -17 7 -19 -18 -16 -20 2 -29 9 -31 26 -4 23 -14 26 -47 12z"/>
<path d="M1701 4294 c-12 -14 -10 -15 10 -12 12 1 24 9 27 16 5 17 -20 14 -37 -4z"/>
<path d="M1260 4275 c0 -11 7 -15 23 -13 12 2 22 8 22 13 0 6 -10 11 -22 13 -16 2 -23 -2 -23 -13z"/>
<path d="M1725 4271 c-37 -6 -38 -7 -15 -15 14 -5 28 -13 31 -18 8 -13 49 12 49 29 0 14 -2 14 -65 4z"/>
<path d="M2893 4204 c-67 -46 -150 -136 -157 -172 -13 -56 90 -297 175 -409 48 -64 129 -143 146 -143 7 0 13 -8 13 -18 0 -36 -31 -18 -109 63 -101 105 -170 223 -231 395 -13 36 -25 67 -26 69 -5 6 -68 -50 -80 -71 -24 -43 13 -149 90 -261 49 -71 55 -87 32 -87 -15 0 -118 164 -137 218 -25 71 -52 18 -53 -103 0 -79 4 -99 32 -165 57 -133 129 -209 172 -182 25 15 41 15 37 1 -5 -26 19 -17 31 11 14 32 32 32 32 0 0 -19 25 -34 42 -24 5 4 -6 20 -26 36 -38 31 -47 58 -21 58 21 0 68 -25 84 -44 19 -22 41 -20 41 5 0 11 5 17 10 14 6 -3 10 3 10 15 0 12 4 19 10 15 5 -3 7 -12 3 -20 -6 -18 22 -10 50 13 16 14 17 13 17 -11 0 -33 6 -34 31 -4 10 12 18 17 19 12 0 -20 45 -14 62 8 10 12 18 16 18 9 0 -9 5 -10 19 -2 28 15 28 15 27 -37 l-1 -48 66 -9 c62 -7 71 -6 120 19 48 24 119 80 119 94 0 4 -28 5 -61 5 -119 -3 -216 41 -354 160 -71 61 -145 174 -176 267 -19 59 -24 95 -24 179 0 58 4 122 8 143 4 20 4 37 0 37 -4 -1 -32 -17 -60 -36z"/>
<path d="M1330 4205 c0 -8 5 -15 10 -15 6 0 10 7 10 15 0 8 -4 15 -10 15 -5 0 -10 -7 -10 -15z"/>
<path d="M1363 4188 c1 -6 -7 -14 -18 -16 -11 -2 -30 -12 -42 -22 -20 -16 -21 -19 -7 -46 9 -16 23 -37 32 -47 18 -20 168 -106 275 -159 l69 -33 29 33 c22 24 29 42 29 71 0 22 2 46 6 54 6 17 -48 41 -193 86 -69 21 -114 41 -137 61 -36 32 -47 37 -43 18z"/>
<path d="M1768 4054 c-5 -4 -8 -29 -8 -56 0 -61 -21 -111 -54 -133 -14 -10 -26 -22 -26 -27 0 -22 64 -87 108 -109 76 -38 156 -37 277 1 96 31 103 32 220 26 66 -4 138 -9 160 -12 l41 -6 47 73 c26 40 47 76 47 80 0 13 -81 39 -124 39 -23 0 -69 -9 -102 -20 -32 -12 -68 -18 -80 -16 -11 3 -51 28 -88 57 -111 84 -162 102 -296 107 -63 2 -118 1 -122 -4z"/>
<path d="M2506 3710 c-29 -53 -115 -271 -105 -264 5 3 9 0 9 -6 0 -6 -6 -13 -14 -16 -8 -3 -16 -14 -19 -25 -4 -16 -2 -19 15 -13 17 5 19 3 13 -15 -4 -13 -2 -21 5 -21 6 0 8 -6 4 -12 -6 -10 -4 -10 7 0 17 16 37 16 21 0 -20 -20 -13 -30 21 -27 18 2 38 0 45 -4 7 -5 22 2 37 17 35 35 46 33 41 -8 -4 -30 -2 -35 20 -40 14 -4 34 -4 45 -1 12 4 19 2 19 -6 0 -9 5 -8 17 3 15 16 13 21 -25 72 -39 52 -86 134 -113 201 -7 17 -15 68 -18 115 l-6 85 -19 -35z"/>
<path d="M2554 3315 c-9 -21 -2 -26 13 -10 8 9 9 16 3 20 -6 3 -13 -1 -16 -10z"/>
</g>
<g id="layer106" fill="#cc7f5b" stroke="none">
<path d="M6670 5036 c0 -16 37 -32 48 -21 7 7 -25 35 -40 35 -4 0 -8 -6 -8 -14z"/>
<path d="M6725 4930 c-8 -13 20 -24 40 -16 8 3 15 10 15 16 0 13 -47 13 -55 0z"/>
<path d="M6190 4840 c0 -5 7 -10 15 -10 8 0 15 5 15 10 0 6 -7 10 -15 10 -8 0 -15 -4 -15 -10z"/>
<path d="M4377 4379 c-65 -15 -117 -47 -117 -71 0 -12 -5 -36 -12 -54 -15 -43 9 -253 25 -217 6 15 6 51 -2 110 -11 90 -4 120 22 95 8 -9 12 -49 12 -124 l0 -112 -34 -8 c-42 -12 -46 -6 -55 80 -3 37 -9 77 -12 90 -7 23 -8 22 -50 -19 -31 -31 -44 -51 -44 -71 0 -16 -6 -44 -14 -63 l-15 -35 72 -35 c40 -19 87 -38 105 -41 28 -6 36 -2 67 32 20 21 38 49 41 61 6 24 28 31 39 13 9 -15 54 -12 85 6 26 16 27 18 12 46 -11 23 -13 54 -9 136 3 59 8 117 12 129 6 18 1 25 -36 42 -23 12 -45 21 -48 20 -3 -1 -23 -5 -44 -10z m13 -96 c0 -91 13 -143 46 -192 26 -39 31 -71 12 -71 -17 0 -53 55 -72 107 -17 47 -30 184 -21 213 4 11 13 20 21 20 11 0 14 -17 14 -77z"/>
<path d="M4680 4370 c-8 -15 -8 -20 1 -20 8 0 10 -31 6 -112 -6 -135 -20 -188 -47 -188 -24 0 -24 -3 -5 85 16 75 19 154 7 170 -13 19 -62 46 -72 40 -29 -18 -50 -174 -34 -254 5 -26 11 -31 34 -31 15 0 41 -7 56 -15 16 -8 39 -15 51 -15 17 0 36 -22 82 -92 149 -230 161 -241 316 -268 135 -24 191 -51 288 -140 54 -49 85 -70 103 -70 25 0 26 2 21 38 -9 53 -65 218 -94 275 -13 26 -22 51 -19 55 8 13 -7 28 -61 57 -79 42 -174 135 -270 263 -154 206 -197 241 -300 242 -42 0 -54 -4 -63 -20z m77 -162 c-9 -122 -16 -148 -40 -148 -17 0 -19 5 -13 40 3 22 9 74 13 115 5 66 8 75 26 75 19 0 20 -5 14 -82z"/>
<path d="M6590 4335 c0 -14 5 -25 10 -25 6 0 10 11 10 25 0 14 -4 25 -10 25 -5 0 -10 -11 -10 -25z"/>
<path d="M6224 4311 c4 -5 -2 -7 -11 -5 -17 5 -18 -4 -14 -108 l4 -113 22 90 c12 50 26 98 30 109 5 12 3 21 -6 27 -18 11 -32 11 -25 0z"/>
<path d="M6362 4239 c9 -27 12 -29 26 -16 19 19 9 47 -17 47 -18 0 -19 -3 -9 -31z"/>
<path d="M6275 4198 c-8 -28 -18 -73 -21 -102 -4 -28 -12 -57 -18 -65 -17 -22 89 -111 197 -166 84 -42 95 -45 124 -35 27 10 39 24 64 78 17 37 36 79 44 93 12 24 11 28 -10 39 -13 7 -28 9 -34 6 -6 -4 -11 -2 -11 3 0 6 -7 11 -15 11 -9 0 -18 7 -22 15 -3 9 -19 23 -37 32 -27 14 -29 17 -12 23 18 6 18 7 -5 23 -13 9 -31 17 -41 17 -9 0 -19 4 -23 9 -3 6 -26 13 -51 17 -24 3 -60 17 -79 30 l-35 23 -15 -51z"/>
<path d="M6572 4218 c6 -18 28 -21 28 -4 0 9 -7 16 -16 16 -9 0 -14 -5 -12 -12z"/>
<path d="M5793 4021 c-42 -11 -123 -53 -205 -108 -93 -62 -94 -64 -65 -110 29 -47 53 -116 70 -208 10 -52 17 -69 28 -66 110 30 141 33 269 28 74 -3 167 -11 207 -17 85 -13 131 -4 191 40 46 33 152 184 152 215 0 14 -21 31 -72 60 -39 22 -94 61 -122 88 l-50 47 -61 -6 c-45 -5 -82 -1 -141 14 -101 26 -161 33 -201 23z"/>
<path d="M4668 3879 c-65 -9 -165 -57 -286 -135 -45 -30 -90 -54 -99 -54 -8 0 -46 29 -84 65 -66 62 -100 85 -146 99 -18 6 -27 -1 -53 -38 l-31 -46 26 -54 c43 -91 199 -216 269 -216 43 0 192 79 288 153 41 32 68 31 166 -5 29 -11 63 -17 75 -14 25 6 57 54 57 85 0 25 -99 172 -115 170 -5 -1 -36 -5 -67 -10z"/>
<path d="M5428 3813 c-2 -10 11 -56 29 -103 18 -47 40 -120 49 -162 19 -84 34 -100 58 -63 15 23 15 32 -3 113 -22 98 -41 151 -74 199 -24 36 -54 43 -59 16z"/>
<path d="M3858 3667 c-16 -13 -28 -32 -28 -44 0 -48 195 -373 224 -373 7 0 20 -7 27 -17 17 -19 269 -141 371 -179 68 -24 80 -26 182 -20 96 6 117 11 170 37 34 17 73 40 87 50 22 16 37 18 88 13 58 -7 61 -6 72 20 11 23 9 35 -13 89 -44 107 -89 110 -274 20 -121 -58 -143 -58 -272 0 -53 25 -143 56 -200 71 -57 14 -115 32 -130 40 -43 23 -175 165 -226 244 -26 39 -48 72 -49 72 -1 -1 -14 -11 -29 -23z"/>
<path d="M5065 3317 c-19 -14 -19 -15 -1 -56 22 -47 33 -49 156 -31 54 7 70 14 93 40 31 35 37 66 10 55 -69 -29 -73 -29 -130 -16 -98 22 -107 23 -128 8z"/>
</g>
<g id="layer107" fill="#9f9770" stroke="none">
<path d="M6520 5390 c0 -5 10 -10 23 -10 18 0 19 2 7 10 -19 13 -30 13 -30 0z"/>
<path d="M6600 5358 c0 -13 6 -18 17 -16 24 5 27 25 3 31 -15 4 -20 0 -20 -15z"/>
<path d="M6668 5333 c-10 -2 -18 -9 -18 -14 0 -15 43 -7 48 9 4 12 0 13 -30 5z"/>
<path d="M3825 4634 c-57 -14 -152 -61 -142 -71 11 -10 244 -29 276 -22 19 4 43 17 54 28 20 20 20 21 3 40 -17 19 -34 25 -103 35 -16 3 -55 -2 -88 -10z"/>
<path d="M3420 4506 c-90 -32 -187 -82 -237 -123 -42 -33 -43 -36 -43 -92 0 -117 50 -257 133 -371 138 -189 296 -310 403 -310 133 0 355 235 379 400 9 64 -23 121 -105 187 -57 46 -66 57 -76 102 -13 61 -47 107 -112 155 -112 82 -215 98 -342 52z"/>
<path d="M3775 4487 c90 -71 135 -136 135 -193 0 -17 15 -35 53 -62 28 -21 58 -46 66 -55 39 -47 42 17 5 92 -35 69 -165 201 -226 229 -67 31 -80 27 -33 -11z"/>
<path d="M4145 4364 c-14 -16 -30 -52 -39 -94 -28 -121 -17 -138 45 -72 55 57 69 83 69 127 0 67 -33 84 -75 39z"/>
<path d="M4377 4379 c-65 -15 -117 -47 -117 -71 0 -12 -5 -36 -12 -54 -15 -43 9 -253 25 -217 6 15 6 51 -2 110 -11 90 -4 120 22 95 8 -9 12 -49 12 -124 l0 -112 -34 -8 c-42 -12 -46 -6 -55 80 -3 37 -9 77 -12 90 -7 23 -8 22 -50 -19 -31 -31 -44 -51 -44 -71 0 -16 -6 -44 -14 -63 l-15 -35 72 -35 c40 -19 87 -38 105 -41 28 -6 36 -2 67 32 20 21 38 49 41 61 6 23 28 31 39 13 3 -5 19 -8 34 -7 16 1 27 5 25 9 -2 4 0 9 6 13 5 3 10 1 10 -4 0 -8 7 -7 19 1 15 9 17 16 9 25 -5 7 -14 11 -18 8 -13 -8 -23 15 -12 28 5 7 12 59 15 117 3 58 8 115 12 127 6 18 1 25 -36 42 -23 12 -45 21 -48 20 -3 -1 -23 -5 -44 -10z m13 -96 c0 -91 13 -143 46 -192 28 -41 31 -66 9 -75 -9 -3 -15 0 -15 8 0 7 -7 19 -15 26 -24 20 -53 113 -60 194 -7 84 -1 116 21 116 11 0 14 -17 14 -77z"/>
<path d="M3050 4332 c-27 -23 -36 -41 -46 -88 -7 -32 -13 -64 -13 -69 -1 -6 19 -19 44 -30 36 -16 44 -24 39 -40 -3 -11 -13 -25 -21 -32 -12 -9 -12 -16 -3 -33 6 -12 9 -28 6 -36 -3 -8 1 -14 12 -15 9 -1 22 -2 27 -4 6 -1 16 -3 23 -3 7 -1 10 -7 6 -13 -3 -6 0 -15 7 -20 12 -8 12 -11 -1 -19 -13 -8 -11 -11 8 -16 21 -6 28 -27 22 -77 -1 -16 1 -17 20 -7 13 7 20 8 16 2 -3 -5 1 -13 10 -16 13 -5 10 -11 -15 -32 -17 -14 -31 -32 -31 -40 0 -19 16 -18 24 1 9 25 34 18 32 -10 0 -15 -6 -23 -13 -21 -7 3 -11 -3 -10 -15 1 -10 5 -19 9 -19 4 0 8 -5 8 -11 0 -7 -10 -9 -25 -5 -16 4 -25 2 -25 -5 0 -7 3 -10 6 -6 8 7 33 -16 28 -25 -8 -12 124 -99 182 -119 123 -43 243 -34 296 23 35 38 35 48 1 48 -75 1 -253 109 -348 212 -149 161 -225 331 -225 505 0 35 -4 63 -8 63 -4 0 -23 -13 -42 -28z"/>
<path d="M4540 4078 c0 -12 7 -18 23 -17 15 0 17 2 7 6 -8 3 -18 11 -22 17 -5 7 -8 4 -8 -6z"/>
<path d="M4000 3816 l-31 -46 26 -54 c43 -91 199 -216 269 -216 16 0 61 16 100 36 85 44 95 52 77 63 -21 13 -24 70 -4 78 14 6 14 7 -2 19 -10 7 -14 18 -9 25 5 9 2 10 -9 6 -9 -3 -19 -2 -22 3 -4 6 0 10 7 10 7 0 19 9 26 21 16 25 15 25 -70 -33 -31 -21 -64 -38 -74 -38 -9 0 -47 29 -85 65 -66 62 -100 85 -146 99 -18 6 -27 -1 -53 -38z"/>
<path d="M3858 3667 c-16 -13 -28 -32 -28 -44 0 -48 195 -373 224 -373 7 0 20 -7 27 -17 17 -20 270 -142 369 -177 55 -20 88 -26 143 -24 l72 1 -75 6 c-86 8 -187 38 -195 59 -3 8 -1 20 5 27 5 6 7 14 4 18 -3 3 3 3 15 0 15 -4 21 -1 21 11 0 9 -7 16 -15 16 -21 0 -19 8 10 46 25 33 32 50 17 40 -5 -3 -9 1 -9 9 0 12 5 11 30 -1 16 -9 31 -13 33 -11 9 8 -121 57 -219 82 -54 14 -111 32 -125 39 -43 23 -175 165 -226 244 -26 39 -48 72 -49 72 -1 -1 -14 -11 -29 -23z"/>
<path d="M3219 3525 c-1 -3 -3 -9 -4 -15 -1 -5 -3 -15 -4 -20 0 -6 -9 -10 -18 -8 -12 2 -19 -4 -21 -19 -3 -20 2 -25 24 -22 4 0 11 -5 15 -13 7 -10 9 -9 9 4 0 9 4 20 10 23 6 3 7 -1 4 -10 -4 -10 -2 -14 8 -10 12 5 15 -4 14 -42 l-1 -48 66 -9 c62 -7 71 -6 120 19 48 24 119 80 119 94 0 4 -28 5 -61 5 -67 -2 -160 21 -226 55 -44 22 -52 24 -54 16z"/>
<path d="M3580 3428 c-22 -24 -35 -47 -31 -53 15 -20 40 -101 51 -165 6 -36 22 -101 35 -145 13 -44 30 -111 39 -150 18 -79 67 -184 104 -220 32 -32 81 -41 120 -21 35 18 42 33 42 91 0 33 -10 59 -41 110 -56 93 -85 174 -108 304 -11 60 -28 129 -39 154 -23 51 -97 137 -119 137 -7 0 -31 -19 -53 -42z"/>
<path d="M4530 3180 c0 -5 7 -10 15 -10 8 0 15 5 15 10 0 6 -7 10 -15 10 -8 0 -15 -4 -15 -10z"/>
<path d="M3913 2929 c-9 -9 -8 -19 3 -40 16 -32 34 -38 34 -11 0 9 3 27 6 40 5 17 2 22 -13 22 -10 0 -24 -5 -30 -11z"/>
</g>
<g id="layer108" fill="#9d61af" stroke="none">
<path d="M4035 7316 c-127 -24 -238 -84 -339 -184 -159 -156 -260 -377 -229 -499 10 -39 8 -45 -29 -108 -22 -37 -42 -83 -45 -103 -4 -37 -4 -37 84 -92 48 -30 125 -91 171 -135 53 -51 86 -77 91 -70 5 5 22 37 39 70 42 84 54 92 142 97 89 6 216 56 287 114 99 81 164 232 184 424 8 73 17 121 27 132 20 24 221 126 285 145 29 9 88 21 131 27 l79 12 -69 36 c-87 45 -190 82 -319 114 -125 32 -377 42 -490 20z"/>
<path d="M4793 7099 c-68 -11 -163 -48 -273 -104 -100 -52 -94 -41 -105 -185 -15 -201 -104 -368 -242 -456 -72 -47 -188 -84 -262 -84 -56 0 -62 -2 -85 -33 -36 -47 -79 -145 -72 -164 5 -13 16 -14 53 -9 26 3 50 11 54 18 5 8 18 8 52 -1 70 -17 126 -13 205 13 156 53 260 127 379 268 226 267 260 298 390 345 46 17 85 23 142 23 79 0 221 -29 275 -57 15 -8 37 -13 47 -10 11 3 17 1 14 -3 -3 -5 4 -14 15 -20 13 -7 20 -7 20 0 0 5 7 10 16 10 11 0 14 8 12 28 -2 21 -8 27 -25 25 -24 -3 -43 34 -24 46 6 4 -26 43 -77 93 -124 122 -139 136 -180 163 -21 14 -54 36 -74 50 -40 27 -136 56 -178 54 -14 -1 -48 -5 -77 -10z"/>
<path d="M5420 6630 c0 -5 7 -10 15 -10 8 0 15 5 15 10 0 6 -7 10 -15 10 -8 0 -15 -4 -15 -10z"/>
<path d="M3269 6334 c-86 -26 -146 -102 -188 -238 -24 -77 -81 -348 -81 -383 l0 -22 58 27 c46 22 72 27 137 27 44 0 89 -3 101 -8 17 -6 26 1 52 42 41 63 145 159 197 182 22 9 62 21 88 24 65 10 102 42 93 79 -9 38 -146 173 -236 232 -66 43 -81 49 -129 49 -29 0 -71 -5 -92 -11z"/>
<path d="M2220 6073 c0 -24 21 -43 130 -118 47 -32 95 -67 107 -77 21 -20 22 -20 47 -2 14 11 26 25 26 31 0 25 -99 90 -186 122 -49 19 -97 40 -106 49 -16 14 -18 13 -18 -5z"/>
<path d="M1756 6035 c-3 -10 -1 -45 5 -79 10 -51 19 -68 55 -103 41 -40 219 -153 240 -153 6 0 19 9 30 21 18 20 18 21 -6 39 -14 10 -67 43 -119 72 -101 57 -156 111 -182 179 -12 33 -17 38 -23 24z"/>
<path d="M2540 5863 c-8 -2 -28 -22 -43 -45 l-29 -41 30 -66 c17 -36 35 -82 41 -101 10 -33 32 -186 46 -313 6 -57 7 -59 33 -52 56 14 57 26 32 235 -5 41 -9 128 -10 192 0 64 -5 129 -10 144 -17 45 -47 60 -90 47z"/>
<path d="M2107 5695 l-38 -44 31 -88 c17 -48 38 -119 46 -156 16 -76 33 -115 77 -169 32 -40 48 -46 65 -25 8 9 4 26 -13 60 -39 75 -57 162 -64 306 -6 114 -10 135 -26 147 -28 21 -36 17 -78 -31z"/>
<path d="M3115 5706 c-64 -20 -100 -42 -127 -78 -44 -58 -47 -107 -3 -58 45 50 208 83 283 57 43 -15 43 -15 55 10 30 67 -89 107 -208 69z"/>
<path d="M3094 5590 c-67 -22 -85 -38 -103 -89 -34 -102 -5 -160 162 -326 83 -82 143 -150 161 -184 32 -59 56 -140 56 -188 0 -18 2 -33 5 -33 3 0 34 14 68 30 64 30 97 37 97 21 0 -14 -23 -29 -97 -66 l-68 -34 46 -1 c25 0 67 7 93 16 34 12 51 13 58 6 18 -18 -7 -38 -69 -53 -32 -7 -78 -14 -102 -14 l-43 0 6 -65 c4 -35 8 -66 10 -67 2 -2 29 3 62 12 32 8 90 15 130 15 59 0 74 3 90 21 10 12 32 28 48 36 l28 15 -27 28 -27 29 17 71 c21 84 17 183 -10 248 l-17 43 -42 -26 c-88 -54 -146 -79 -157 -68 -17 17 -5 28 73 66 100 48 112 58 96 80 -12 16 -22 12 -122 -48 -100 -61 -144 -75 -134 -42 3 6 53 39 111 71 59 33 107 63 107 68 0 10 -8 20 -143 173 -85 97 -126 159 -136 207 -13 65 -110 85 -227 48z"/>
<path d="M1100 5251 c0 -20 17 -37 27 -28 7 8 -7 47 -18 47 -5 0 -9 -9 -9 -19z"/>
<path d="M2682 5240 c-23 -21 -43 -30 -67 -30 -26 0 -39 -6 -50 -24 -15 -22 -15 -27 -1 -54 13 -26 186 -203 204 -210 4 -1 17 6 29 17 11 11 24 17 27 14 11 -11 6 -23 -9 -23 -9 0 -15 -9 -15 -24 0 -26 18 -45 29 -30 3 5 21 9 39 10 20 1 29 -2 21 -7 -20 -12 -23 -59 -4 -59 8 0 15 7 15 15 0 15 9 17 105 19 28 0 53 4 56 9 3 4 16 9 27 10 12 1 22 5 22 10 0 5 8 3 18 -4 15 -13 16 -12 3 3 -7 10 -17 15 -22 12 -5 -3 -9 3 -9 13 0 23 -62 84 -160 155 -81 59 -110 89 -152 162 -33 55 -58 59 -106 16z"/>
<path d="M2306 5179 c-21 -16 -49 -29 -61 -29 -13 0 -28 -7 -35 -14 -24 -30 -6 -59 70 -118 41 -32 79 -66 83 -76 6 -13 16 -17 38 -14 16 2 29 9 29 14 0 6 16 7 42 3 33 -6 40 -5 36 7 -3 7 -11 40 -18 73 -17 85 -57 164 -87 176 -37 14 -55 10 -97 -22z"/>
<path d="M1270 5174 c0 -9 5 -14 12 -12 18 6 21 28 4 28 -9 0 -16 -7 -16 -16z"/>
<path d="M1357 5133 c-12 -11 -8 -23 8 -23 8 0 15 7 15 15 0 16 -12 20 -23 8z"/>
<path d="M1376 5043 c-11 -11 -6 -23 9 -23 8 0 15 4 15 9 0 13 -16 22 -24 14z"/>
<path d="M1390 4940 c0 -5 7 -10 15 -10 8 0 15 5 15 10 0 6 -7 10 -15 10 -8 0 -15 -4 -15 -10z"/>
<path d="M830 4901 c0 -5 7 -12 16 -15 24 -9 28 -7 14 9 -14 17 -30 20 -30 6z"/>
<path d="M1410 4890 c0 -5 7 -10 15 -10 8 0 15 5 15 10 0 6 -7 10 -15 10 -8 0 -15 -4 -15 -10z"/>
<path d="M1420 4855 c0 -8 5 -15 10 -15 6 0 10 7 10 15 0 8 -4 15 -10 15 -5 0 -10 -7 -10 -15z"/>
<path d="M2482 4858 c6 -18 28 -21 28 -4 0 9 -7 16 -16 16 -9 0 -14 -5 -12 -12z"/>
<path d="M2610 4765 c0 -8 5 -15 10 -15 6 0 10 7 10 15 0 8 -4 15 -10 15 -5 0 -10 -7 -10 -15z"/>
<path d="M1060 4740 c-8 -5 -12 -12 -9 -15 8 -8 39 5 39 16 0 11 -11 11 -30 -1z"/>
<path d="M1450 4730 c0 -5 7 -10 15 -10 8 0 15 5 15 10 0 6 -7 10 -15 10 -8 0 -15 -4 -15 -10z"/>
<path d="M3825 4634 c-32 -8 -79 -26 -104 -41 l-46 -27 28 -7 c15 -4 76 -10 135 -14 107 -7 170 3 157 25 -4 6 -3 10 2 9 46 -8 30 34 -19 49 -62 19 -93 21 -153 6z"/>
<path d="M1281 4518 c0 -7 4 -22 9 -33 8 -18 9 -17 9 7 1 15 -3 30 -9 33 -5 3 -10 0 -9 -7z"/>
</g>
<g id="layer109" fill="#939595" stroke="none">
<path d="M6605 5359 c-4 -6 -4 -13 -1 -16 8 -8 36 5 36 17 0 13 -27 13 -35 -1z"/>
<path d="M6655 5320 c-3 -5 3 -10 14 -10 11 0 23 5 26 10 3 6 -3 10 -14 10 -11 0 -23 -4 -26 -10z"/>
<path d="M6684 5025 c24 -18 39 -20 34 -2 -3 6 -15 13 -29 15 -23 2 -23 2 -5 -13z"/>
<path d="M6735 4930 c-3 -5 3 -10 14 -10 12 0 21 5 21 10 0 6 -6 10 -14 10 -8 0 -18 -4 -21 -10z"/>
<path d="M3370 4809 c0 -21 3 -39 6 -39 4 0 22 10 41 21 31 19 33 23 20 37 -9 8 -27 16 -41 17 -24 3 -26 0 -26 -36z"/>
<path d="M3605 4786 c-14 -10 -25 -11 -37 -5 -12 7 -18 6 -18 -1 0 -7 -6 -8 -18 -1 -12 7 -36 0 -87 -24 l-70 -34 46 0 c25 -1 67 6 93 15 34 12 51 13 58 6 18 -18 -7 -38 -69 -53 -32 -7 -78 -14 -102 -14 l-43 0 6 -65 c4 -35 8 -66 10 -67 2 -2 29 3 62 12 32 8 90 15 130 15 59 0 74 3 90 21 10 12 32 28 48 36 l28 15 -27 28 c-18 19 -26 36 -23 53 2 17 -6 35 -21 51 -28 30 -31 31 -56 12z"/>
<path d="M3164 4714 c-12 -29 -19 -35 -36 -31 -16 5 -19 2 -14 -14 3 -10 9 -28 12 -38 4 -13 -3 -27 -25 -47 -17 -15 -29 -30 -26 -32 3 -3 -11 -16 -30 -29 -38 -26 -44 -40 -19 -50 10 -4 12 -8 5 -13 -8 -4 -9 -19 -4 -43 l8 -37 29 15 c15 8 41 15 57 15 16 0 45 10 63 22 32 21 34 27 41 95 8 89 -11 223 -32 223 -8 0 -21 -16 -29 -36z"/>
<path d="M3793 4626 c-23 -8 -58 -24 -79 -37 l-38 -23 27 -7 c15 -4 76 -10 135 -14 107 -7 170 3 157 25 -4 6 -3 10 2 9 46 -8 31 33 -18 50 -42 15 -134 13 -186 -3z"/>
<path d="M3420 4506 c-90 -32 -187 -82 -237 -123 -42 -33 -43 -36 -43 -92 0 -72 30 -192 66 -262 59 -117 179 -255 276 -319 50 -33 61 -33 79 3 l12 22 -25 -23 c-29 -26 -45 -19 -17 9 10 10 19 25 19 32 -1 7 -6 5 -14 -5 -14 -18 -26 -14 -26 9 0 7 9 13 21 13 11 0 18 4 15 9 -3 5 3 11 14 14 11 3 22 17 25 33 3 16 10 36 14 44 5 9 2 24 -6 36 -12 19 -12 22 3 28 8 3 19 4 23 1 4 -2 8 2 8 10 0 8 -5 15 -10 15 -6 0 2 10 16 23 17 14 27 33 27 50 0 19 8 31 30 42 29 15 40 35 20 35 -16 0 -11 28 8 42 9 7 28 26 42 42 l25 28 -24 -7 c-15 -5 -21 -3 -17 3 3 6 0 13 -6 15 -8 4 -4 8 9 12 13 4 20 11 17 16 -3 5 -1 9 5 9 5 0 11 15 13 32 2 22 10 36 26 44 33 16 36 22 19 38 -8 9 -17 19 -19 23 -7 18 -97 83 -139 102 -62 29 -164 28 -249 -3z m80 -745 c0 -12 -26 -32 -33 -25 -6 7 14 33 26 34 4 0 7 -4 7 -9z"/>
<path d="M3740 4518 c3 -3 30 -26 61 -51 37 -29 61 -42 69 -37 16 10 -40 66 -74 73 -11 2 -30 8 -41 12 -11 5 -18 6 -15 3z"/>
<path d="M3050 4332 c-27 -23 -36 -41 -46 -88 -7 -32 -13 -64 -13 -69 -1 -6 19 -19 44 -30 36 -16 44 -24 39 -40 -3 -11 -13 -25 -21 -32 -12 -9 -12 -16 -3 -33 6 -12 9 -28 6 -36 -3 -8 1 -14 12 -15 9 -1 22 -2 27 -4 6 -1 16 -3 23 -3 7 -1 10 -7 6 -13 -3 -6 0 -15 7 -20 12 -8 12 -11 -1 -19 -13 -8 -11 -11 8 -16 21 -6 28 -27 22 -77 -1 -16 1 -17 20 -7 13 7 20 8 16 2 -3 -5 1 -13 10 -16 13 -5 10 -11 -15 -32 -17 -14 -31 -32 -31 -40 0 -19 16 -18 24 1 9 25 34 18 32 -10 0 -15 -6 -23 -13 -21 -7 3 -11 -3 -10 -15 1 -10 5 -19 9 -19 4 0 8 -5 8 -11 0 -7 -10 -9 -25 -5 -16 4 -25 2 -25 -5 0 -7 3 -10 6 -6 8 7 33 -16 28 -25 -6 -10 115 -93 154 -106 17 -6 33 -8 34 -4 0 4 2 14 2 22 1 8 6 15 11 14 6 -1 18 7 27 17 16 17 16 18 -3 24 -18 6 -15 10 20 27 l40 20 -84 80 c-108 102 -174 190 -230 303 -47 97 -65 172 -65 272 0 35 -4 63 -8 63 -4 0 -23 -13 -42 -28z m402 -694 c-9 -9 -15 -9 -24 0 -9 9 -7 12 12 12 19 0 21 -3 12 -12z"/>
<path d="M1260 4280 c0 -5 9 -10 20 -10 11 0 20 5 20 10 0 6 -9 10 -20 10 -11 0 -20 -4 -20 -10z"/>
<path d="M2250 4216 c0 -18 26 -39 39 -31 7 4 6 12 -2 25 -14 23 -37 27 -37 6z"/>
<path d="M3219 3525 c-1 -3 -3 -9 -4 -15 -1 -5 -3 -15 -4 -20 0 -6 -9 -10 -18 -8 -12 2 -19 -4 -21 -19 -3 -20 2 -25 24 -22 4 0 11 -5 15 -13 7 -10 9 -9 9 4 0 9 4 20 10 23 6 3 7 -1 4 -10 -4 -11 -2 -14 9 -9 12 4 14 -3 13 -40 -2 -38 0 -45 18 -50 34 -9 46 -7 46 8 0 8 7 16 15 20 10 4 13 14 9 36 -4 16 -2 36 4 43 9 10 -3 20 -54 45 -67 33 -73 35 -75 27z"/>
<path d="M3683 2935 c-3 -9 -3 -18 -1 -21 9 -9 38 8 38 22 0 19 -29 18 -37 -1z"/>
<path d="M3850 2824 c0 -11 29 -34 44 -34 9 0 16 7 16 16 0 11 -6 14 -20 9 -11 -4 -20 -2 -20 4 0 6 -4 11 -10 11 -5 0 -10 -3 -10 -6z"/>
<path d="M3780 2760 c0 -5 14 -10 30 -10 17 0 30 5 30 10 0 6 -13 10 -30 10 -16 0 -30 -4 -30 -10z"/>
<path d="M1830 1490 c0 -5 7 -10 15 -10 8 0 15 5 15 10 0 6 -7 10 -15 10 -8 0 -15 -4 -15 -10z"/>
<path d="M2850 1210 c0 -5 11 -10 25 -10 14 0 25 5 25 10 0 6 -11 10 -25 10 -14 0 -25 -4 -25 -10z"/>
<path d="M3020 1211 c0 -12 26 -32 33 -25 9 10 -4 34 -19 34 -8 0 -14 -4 -14 -9z"/>
<path d="M3323 1193 c-14 -5 -18 -33 -5 -33 10 0 32 22 32 32 0 9 -8 9 -27 1z"/>
<path d="M3210 1162 c0 -5 7 -13 16 -16 10 -4 14 -1 12 6 -5 15 -28 23 -28 10z"/>
<path d="M2970 1124 c0 -14 4 -23 10 -19 6 3 10 15 10 26 0 10 -4 19 -10 19 -5 0 -10 -12 -10 -26z"/>
<path d="M2870 1085 c0 -8 5 -15 10 -15 6 0 10 7 10 15 0 8 -4 15 -10 15 -5 0 -10 -7 -10 -15z"/>
<path d="M2724 1064 c3 -9 6 -20 6 -25 0 -15 17 -10 24 8 4 9 1 20 -6 25 -21 12 -31 9 -24 -8z"/>
<path d="M2949 756 c16 -19 44 -21 39 -3 -3 6 -15 14 -28 15 -21 3 -22 2 -11 -12z"/>
<path d="M3190 690 c0 -5 7 -10 15 -10 8 0 15 5 15 10 0 6 -7 10 -15 10 -8 0 -15 -4 -15 -10z"/>
<path d="M2540 605 c0 -8 5 -15 10 -15 6 0 10 7 10 15 0 8 -4 15 -10 15 -5 0 -10 -7 -10 -15z"/>
</g>


</svg>